<svg xmlns="http://www.w3.org/2000/svg" version="1.1" xmlns:xlink="http://www.w3.org/1999/xlink" xmlns:svgjs="http://svgjs.com/svgjs" width="300.000000pt" height="300.000000pt"><svg version="1.0" xmlns="http://www.w3.org/2000/svg" width="300.000000pt" height="300.000000pt" viewBox="0 0 300.000000 300.000000" preserveAspectRatio="xMidYMid meet">
<metadata>
Created by potrace 1.10, written by Peter Selinger 2001-2011
</metadata>
<g transform="translate(0.000000,300.000000) scale(0.100000,-0.100000)" fill="#000000" stroke="none">
<path d="M593 2408 c-40 -42 -53 -76 -53 -140 l0 -51 21 19 c36 32 67 97 75
152 4 30 3 52 -3 52 -5 0 -23 -15 -40 -32z"></path>
<path d="M1372 2423 c-48 -23 -91 -77 -98 -123 l-7 -40 -39 7 -40 6 23 -44
c30 -60 126 -337 146 -423 8 -38 21 -106 29 -150 l13 -81 -5 72 c-6 86 -41
233 -83 355 -17 49 -31 99 -31 112 0 13 -7 43 -15 66 -13 36 -13 46 -2 59 7 9
23 36 36 61 30 57 49 78 83 96 45 23 81 18 96 -13 19 -42 112 -120 122 -103 4
7 15 10 25 7 21 -9 10 -27 -16 -27 -11 0 -19 -7 -19 -17 0 -10 -12 -56 -26
-103 -35 -119 -35 -121 -39 -163 -3 -20 -9 -46 -14 -56 -6 -10 -8 -21 -5 -23
2 -3 0 -54 -6 -114 -5 -59 -7 -153 -3 -208 l8 -101 6 90 c14 175 87 447 170
634 16 35 29 66 29 69 0 2 -13 2 -29 -1 -27 -6 -30 -4 -40 37 -13 54 -43 91
-92 116 -47 24 -131 26 -177 3z m207 -61 c29 -35 37 -52 29 -60 -8 -8 -24 3
-59 37 -27 27 -49 53 -49 60 0 27 41 7 79 -37z m67 -151 c-23 -110 -33 -148
-62 -239 -30 -94 -68 -253 -77 -327 -3 -24 -4 -22 -5 10 -3 88 47 382 93 542
13 44 18 50 36 46 16 -5 20 -11 15 -32z"></path>
<path d="M2265 2393 c8 -59 37 -122 70 -153 l25 -23 0 57 c0 31 -5 67 -11 79
-15 28 -70 87 -82 87 -5 0 -6 -20 -2 -47z"></path>
<path d="M1290 2263 c0 -5 9 -36 20 -70 57 -182 108 -535 93 -645 -5 -38 -6
-68 -1 -68 4 0 8 7 8 15 0 8 3 15 8 15 9 0 -2 191 -19 330 -6 52 -13 111 -15
130 -7 61 -9 74 -21 100 -7 14 -22 64 -34 113 -12 48 -26 87 -31 87 -4 0 -8
-3 -8 -7z"></path>
<path d="M427 2216 c-13 -92 30 -156 106 -156 32 0 46 6 71 33 17 19 36 48 43
65 11 32 11 32 -22 32 -44 0 -82 -32 -97 -83 l-13 -42 -6 68 c-5 56 -10 72
-34 97 -16 17 -32 30 -36 30 -3 0 -9 -20 -12 -44z"></path>
<path d="M2442 2245 c-33 -24 -52 -68 -53 -122 l0 -48 -19 41 c-22 50 -53 74
-97 74 l-33 0 25 -50 c72 -142 237 -81 208 78 -8 42 -8 42 -31 27z"></path>
<path d="M1170 2096 c0 -3 13 -25 30 -49 80 -118 144 -294 156 -426 l7 -70
-37 -15 c-35 -14 -36 -17 -36 -64 0 -35 4 -52 15 -56 12 -4 15 -23 15 -84 0
-74 -1 -79 -25 -90 -22 -10 -25 -18 -25 -61 0 -41 -4 -52 -21 -61 -22 -12 -49
-66 -49 -100 0 -20 5 -20 255 -20 l255 0 -7 33 c-10 55 -22 77 -45 86 -19 7
-22 14 -19 60 2 50 1 53 -28 64 -29 11 -31 15 -31 63 0 73 10 114 27 114 10 0
13 6 9 16 -3 9 -6 31 -6 50 0 31 -5 37 -35 50 -33 13 -35 18 -31 47 3 18 8 56
11 85 11 102 114 348 173 415 14 16 13 17 -14 17 -38 0 -64 -17 -46 -29 11 -6
5 -25 -26 -87 -52 -104 -77 -180 -97 -289 -20 -104 -16 -154 14 -184 12 -12
19 -26 16 -31 -4 -6 -1 -10 4 -10 6 0 11 -11 11 -25 l0 -25 -136 0 -137 0 6
42 c3 24 11 44 17 46 6 2 17 16 25 31 30 58 -19 278 -97 434 -36 72 -44 97
-33 97 20 0 19 16 -1 24 -18 7 -64 8 -64 2z m387 -763 c-1 -38 2 -78 6 -90 l8
-23 -120 0 c-118 0 -133 4 -110 27 7 7 10 38 7 82 l-4 71 107 0 107 0 -1 -67z
m55 -163 l3 -35 -162 -3 -163 -2 0 22 c1 65 -3 63 155 60 114 -2 145 0 145 10
1 26 18 -16 22 -52z m40 -82 l28 -33 -116 -3 c-63 -1 -164 -1 -225 0 l-109 3
22 32 23 33 175 0 174 0 28 -32z m18 -56 c0 -12 -428 -14 -435 -2 -4 7 71 10
214 10 122 0 221 -4 221 -8z"></path>
<path d="M1376 1335 c7 -51 19 -72 47 -85 22 -11 22 -11 -1 7 -13 10 -29 41
-37 68 -13 45 -14 46 -9 10z"></path>
<path d="M1515 1310 c-4 -16 -18 -39 -32 -50 -14 -11 -21 -20 -15 -20 16 0 62
59 62 81 0 28 -8 23 -15 -11z"></path>
<path d="M1394 2064 c5 -10 14 -61 21 -113 8 -51 16 -96 19 -99 13 -12 5 128
-9 162 l-15 36 40 0 c22 0 40 -2 40 -4 0 -2 -7 -23 -15 -46 -16 -45 -20 -117
-7 -137 4 -7 13 30 21 83 7 53 15 102 18 110 3 10 -8 13 -46 12 -27 0 -55 4
-62 8 -9 5 -10 2 -5 -12z"></path>
<path d="M513 1985 c0 -33 2 -45 4 -27 2 18 2 45 0 60 -2 15 -4 0 -4 -33z"></path>
<path d="M2380 1997 c0 -25 4 -49 10 -52 6 -4 7 11 3 42 -8 63 -13 67 -13 10z"></path>
<path d="M379 1982 c-1 -4 0 -20 0 -37 4 -74 39 -127 93 -140 27 -7 28 -6 22
26 -11 65 -25 96 -52 121 -29 27 -61 42 -63 30z"></path>
<path d="M2485 1972 c-38 -24 -50 -39 -63 -82 -20 -67 -23 -90 -11 -90 29 0
79 34 92 63 17 36 30 127 19 127 -4 0 -20 -8 -37 -18z"></path>
<path d="M569 1955 c-45 -24 -59 -57 -58 -132 0 -37 7 -90 15 -118 l13 -50 -5
45 c-2 25 -7 59 -10 76 -5 27 -2 32 26 44 33 13 62 60 75 118 5 27 4 32 -12
32 -10 -1 -30 -7 -44 -15z"></path>
<path d="M2276 1943 c12 -53 39 -98 71 -118 31 -19 32 -23 27 -65 -3 -25 -7
-56 -10 -70 -4 -22 -3 -23 7 -7 6 10 13 60 16 110 4 81 2 96 -16 125 -20 31
-55 52 -87 52 -11 0 -13 -7 -8 -27z"></path>
<path d="M1468 1740 c-11 -119 -10 -200 2 -200 6 0 10 -7 10 -17 0 -9 1 -14 3
-12 1 2 0 74 -3 159 -5 153 -5 154 -12 70z"></path>
<path d="M1425 1745 c3 -38 5 -100 5 -137 0 -38 4 -68 8 -68 11 0 3 191 -9
240 -7 26 -8 18 -4 -35z"></path>
<path d="M593 1732 c-61 -48 -61 -127 1 -274 27 -64 27 -42 0 32 l-25 70 30
26 c32 26 51 76 51 132 0 37 -21 43 -57 14z"></path>
<path d="M2250 1723 c0 -50 21 -106 52 -137 l31 -30 -22 -60 c-28 -77 -21 -84
8 -9 48 124 46 202 -6 243 -38 29 -63 26 -63 -7z"></path>
<path d="M385 1683 c20 -83 55 -122 114 -130 49 -7 50 -1 16 66 -29 59 -67 91
-107 91 -28 0 -30 -2 -23 -27z"></path>
<path d="M2443 1690 c-30 -18 -61 -66 -78 -119 -7 -23 -6 -24 35 -18 53 7 84
36 110 105 l20 52 -28 0 c-15 0 -41 -9 -59 -20z"></path>
<path d="M659 1521 c-25 -25 -29 -37 -29 -83 0 -58 34 -141 91 -224 51 -74 44
-43 -10 44 -44 70 -48 82 -35 93 38 31 55 112 38 177 -8 29 -20 28 -55 -7z"></path>
<path d="M2186 1519 c-14 -74 -1 -136 38 -168 13 -11 9 -23 -35 -94 -59 -96
-92 -134 -55 -62 32 61 33 92 4 135 -32 47 -43 47 -62 -2 -22 -59 -20 -116 5
-158 l21 -34 -73 -67 c-70 -64 -106 -85 -62 -36 48 53 55 102 22 156 l-21 34
-31 -48 c-25 -39 -32 -60 -32 -100 0 -27 4 -60 8 -72 7 -20 -1 -28 -75 -77
-62 -40 -121 -67 -234 -106 l-151 -52 -154 52 c-118 40 -174 65 -237 106 -67
44 -82 58 -76 72 4 9 9 38 12 63 4 47 -11 88 -49 137 l-18 24 -21 -34 c-32
-53 -25 -103 23 -156 41 -45 0 -20 -67 41 l-68 63 21 34 c12 21 21 52 21 77 0
44 -26 123 -40 123 -15 0 -48 -50 -55 -80 -5 -21 1 -46 19 -86 17 -36 21 -52
11 -44 -25 20 -17 0 15 -40 52 -65 238 -207 340 -259 52 -27 132 -61 178 -76
46 -15 81 -29 79 -31 -2 -3 -45 -16 -95 -29 -49 -14 -107 -32 -128 -41 -36
-15 -37 -17 -19 -30 11 -8 26 -11 35 -7 8 3 71 26 140 50 l125 43 115 -36 c63
-20 127 -42 142 -50 21 -11 33 -11 55 -3 l28 11 -40 18 c-22 10 -84 30 -138
46 -53 15 -94 30 -90 34 5 3 42 16 83 29 151 47 346 167 481 298 36 34 37 35
67 19 39 -20 65 -20 105 0 39 20 97 73 97 90 0 16 -23 24 -69 24 -36 0 -90
-28 -128 -66 -8 -8 -17 -14 -19 -14 -6 0 -6 -1 59 97 26 39 47 74 47 77 0 3
11 29 24 56 13 28 20 48 15 44 -5 -3 -9 13 -9 36 0 33 -6 48 -29 71 -37 37
-47 37 -55 -2z m79 -359 c-17 -19 -65 -28 -65 -12 0 10 40 29 64 31 18 1 18 0
1 -19z m-300 -29 c-3 -5 -1 -12 5 -16 12 -7 -10 -45 -26 -45 -14 0 -6 52 10
62 15 10 18 10 11 -1z"></path>
<path d="M450 1413 c39 -66 85 -103 127 -103 61 0 68 11 34 57 -46 64 -77 83
-133 83 l-50 0 22 -37z"></path>
<path d="M2345 1428 c-15 -11 -40 -39 -56 -61 -34 -46 -27 -57 33 -57 45 0 91
36 126 99 l23 41 -49 0 c-35 0 -57 -6 -77 -22z m28 -54 c-18 -17 -29 -21 -32
-13 -4 14 26 39 46 39 8 0 2 -11 -14 -26z"></path>
<path d="M563 1213 c-19 -7 -16 -18 13 -53 30 -34 92 -70 124 -70 12 0 35 7
51 16 30 15 30 16 12 36 -37 43 -105 78 -147 77 -23 0 -47 -3 -53 -6z"></path>
<path d="M1072 1065 c-27 -60 -5 -118 62 -164 24 -17 46 -27 50 -24 10 11 7
93 -5 116 -13 24 -79 97 -89 97 -4 0 -12 -11 -18 -25z m68 -97 c0 -17 -3 -18
-15 -8 -8 7 -15 21 -15 32 0 17 3 18 15 8 8 -7 15 -21 15 -32z"></path>
<path d="M1766 1049 c-42 -46 -56 -77 -56 -122 0 -52 10 -57 53 -30 44 28 77
77 77 115 0 33 -16 78 -29 78 -5 0 -25 -18 -45 -41z m25 -70 c-5 -14 -16 -31
-25 -38 -14 -11 -16 -11 -16 3 0 9 7 31 16 48 19 36 40 25 25 -13z"></path>
<path d="M756 1015 c-21 -7 -43 -18 -48 -23 -12 -12 32 -44 96 -73 38 -16 52
-18 84 -9 21 5 47 19 56 29 17 19 16 20 -27 46 -39 22 -101 46 -117 45 -3 -1
-22 -7 -44 -15z m92 -41 c12 -4 22 -10 22 -15 0 -14 -34 -10 -56 6 -21 16 -8
20 34 9z"></path>
<path d="M2066 1019 c-46 -13 -116 -53 -116 -65 0 -16 38 -40 75 -48 23 -5 46
1 92 24 82 41 93 55 56 73 -41 21 -74 26 -107 16z m44 -49 c0 -11 -29 -22 -68
-25 -43 -4 -37 15 9 30 34 12 59 10 59 -5z"></path>
<path d="M937 843 c-20 -14 -37 -30 -37 -34 0 -14 110 -49 155 -49 32 0 51 7
74 26 17 14 31 31 31 38 0 17 -87 46 -140 46 -33 0 -55 -7 -83 -27z m146 -28
c-3 -13 -29 -18 -59 -11 -40 11 -27 27 19 24 23 -2 41 -7 40 -13z"></path>
<path d="M1788 852 c-27 -8 -48 -21 -48 -28 0 -7 14 -24 31 -38 23 -19 42 -26
74 -26 47 0 155 35 155 50 0 5 -17 21 -37 35 -44 29 -101 32 -175 7z m127 -24
c2 -2 0 -9 -4 -17 -13 -21 -83 -22 -103 -1 -9 10 -15 20 -12 23 6 5 114 1 119
-5z"></path>
</g>
</svg><style>@media (prefers-color-scheme: light) { :root { filter: none; } }
@media (prefers-color-scheme: dark) { :root { filter: invert(100%); } }
</style></svg>